<svg width="80" height="80" viewBox="0 0 14 14" fill="none" xmlns="http://www.w3.org/2000/svg">
<g filter="url(#filter0_d_1518_5580)">
<path d="M8.09028 5.67688V5.3397C8.09028 5.29543 8.08265 5.25159 8.06782 5.21067C8.05299 5.16978 8.03125 5.13261 8.00385 5.10127C7.97643 5.06997 7.94389 5.04514 7.9081 5.02819C7.87228 5.01126 7.8339 5.00253 7.79514 5.00253H6.6145C6.22313 5.00253 5.84778 4.82492 5.57102 4.50875C5.29428 4.19259 5.1388 3.7638 5.13879 3.31667C5.13879 3.09528 5.17697 2.87605 5.25113 2.67151C5.32529 2.46697 5.43398 2.28112 5.57102 2.12457C5.70805 1.96803 5.87073 1.84385 6.04977 1.75913C6.22882 1.67441 6.42072 1.6308 6.6145 1.6308H7.79506C7.83382 1.63082 7.87222 1.6221 7.90803 1.60517C7.94385 1.58823 7.97641 1.56339 8.00381 1.53208C8.03123 1.50078 8.05296 1.4636 8.06782 1.42269C8.08265 1.38177 8.09028 1.33792 8.09028 1.29363V0.956451H6.61458C6.34326 0.956451 6.07461 1.0175 5.82396 1.13611C5.5733 1.25472 5.34555 1.42858 5.15371 1.64775C4.96187 1.86692 4.80969 2.1271 4.70586 2.41346C4.60205 2.69981 4.54861 3.00672 4.54861 3.31667C4.54861 3.94262 4.76627 4.54297 5.15372 4.98559C5.54115 5.42821 6.06664 5.67688 6.61458 5.67688H8.09028Z" fill="url(#paint0_linear_1518_5580)"/>
<path d="M5.72908 3.31667C5.72908 3.58494 5.82236 3.84221 5.98841 4.03188C6.15445 4.22159 6.37965 4.32815 6.61447 4.32815H8.09029C8.24684 4.32815 8.39696 4.3992 8.50766 4.52566C8.61835 4.65213 8.68056 4.82365 8.68056 5.0025V5.67686H9.27085V5.00253C9.27085 4.64484 9.14646 4.3018 8.92507 4.04885C8.70366 3.79593 8.40338 3.65385 8.09029 3.65385H6.61451C6.53623 3.65385 6.46116 3.61832 6.40581 3.5551C6.35046 3.49185 6.31936 3.4061 6.31936 3.31667C6.31936 3.22724 6.35046 3.14148 6.40581 3.07825C6.46116 3.01501 6.53623 2.97949 6.61451 2.97949H8.09029C8.40338 2.97949 8.70366 2.8374 8.92507 2.58447C9.14646 2.33155 9.27085 1.9885 9.27085 1.6308V0.956451H8.68046V1.6308C8.68046 1.80963 8.61829 1.98114 8.50762 2.10759C8.39694 2.23405 8.24683 2.3051 8.09029 2.30514H6.61451C6.49823 2.30513 6.38309 2.33129 6.27567 2.38212C6.16824 2.43296 6.07062 2.50747 5.98841 2.60139C5.90618 2.69532 5.84097 2.80684 5.79647 2.92957C5.75198 3.05229 5.72907 3.18383 5.72908 3.31667Z" fill="url(#paint1_linear_1518_5580)"/>
</g>
<defs>


<linearGradient id="paint0_linear_1518_5580" x1="5.08341" y1="3.31667" x2="9.62738" y2="3.31667" gradientUnits="userSpaceOnUse">
<stop stop-color="#817696"/>
<stop offset="1" stop-color="#817698"/>
</linearGradient>
<linearGradient id="paint1_linear_1518_5580" x1="5.08094" y1="3.31666" x2="9.62855" y2="3.31666" gradientUnits="userSpaceOnUse">
<stop stop-color="#8575D2"/>
<stop offset="1" stop-color="#9083D5"/>
</linearGradient>
</defs>
</svg>
